<svg width="25" height="25" viewBox="0 0 25 25" fill="none" xmlns="http://www.w3.org/2000/svg">
<g id="instagram 1" clip-path="url(#clip0_15_71)">
<g id="Group">
<path id="Vector" d="M24.9756 7.35007C24.917 6.02172 24.7022 5.1085 24.3945 4.31717C24.0771 3.4772 23.5887 2.72518 22.9488 2.10002C22.3237 1.46513 21.5667 0.971793 20.7365 0.659308C19.9405 0.351593 19.0321 0.136784 17.7037 0.0782166C16.3655 0.0146894 15.9406 0 12.5464 0C9.15218 0 8.72733 0.0146894 7.39402 0.0732565C6.06567 0.131824 5.15245 0.346824 4.36131 0.654348C3.52115 0.971793 2.76913 1.46017 2.14397 2.10002C1.50908 2.72518 1.01593 3.48216 0.703255 4.3124C0.395539 5.1085 0.180729 6.01676 0.122162 7.34511C0.0586348 8.68338 0.0439453 9.10822 0.0439453 12.5024C0.0439453 15.8967 0.0586348 16.3215 0.117202 17.6548C0.175769 18.9832 0.390769 19.8964 0.698485 20.6877C1.01593 21.5277 1.50908 22.2797 2.14397 22.9049C2.76913 23.5398 3.52611 24.0331 4.35635 24.3456C5.15245 24.6533 6.06071 24.8681 7.38925 24.9267C8.72237 24.9854 9.14741 24.9999 12.5416 24.9999C15.9359 24.9999 16.3607 24.9854 17.694 24.9267C19.0224 24.8681 19.9356 24.6533 20.7267 24.3456C22.4069 23.696 23.7352 22.3677 24.3848 20.6877C24.6923 19.8916 24.9073 18.9832 24.9659 17.6548C25.0244 16.3215 25.0391 15.8967 25.0391 12.5024C25.0391 9.10822 25.0342 8.68338 24.9756 7.35007ZM22.7243 17.5571C22.6705 18.7781 22.4654 19.4374 22.2945 19.8769C21.8744 20.966 21.01 21.8304 19.9209 22.2505C19.4814 22.4214 18.8173 22.6265 17.6011 22.6801C16.2825 22.7389 15.887 22.7534 12.5514 22.7534C9.21571 22.7534 8.81528 22.7389 7.50143 22.6801C6.28048 22.6265 5.62117 22.4214 5.18164 22.2505C4.63965 22.0502 4.14631 21.7328 3.74588 21.3176C3.33076 20.9123 3.01332 20.4239 2.81301 19.8819C2.64207 19.4424 2.43699 18.7781 2.38339 17.5621C2.32463 16.2435 2.31013 15.8478 2.31013 12.5122C2.31013 9.17652 2.32463 8.77609 2.38339 7.46243C2.43699 6.24149 2.64207 5.58218 2.81301 5.14264C3.01332 4.60047 3.33076 4.10732 3.75084 3.7067C4.15604 3.29158 4.64442 2.97414 5.1866 2.77402C5.62613 2.60309 6.2904 2.39801 7.50639 2.34421C8.82501 2.28564 9.22067 2.27095 12.5561 2.27095C15.8967 2.27095 16.2922 2.28564 17.6061 2.34421C18.827 2.39801 19.4863 2.60309 19.9259 2.77402C20.4678 2.97414 20.9612 3.29158 21.3616 3.7067C21.7767 4.11209 22.0942 4.60047 22.2945 5.14264C22.4654 5.58218 22.6705 6.24626 22.7243 7.46243C22.7829 8.78105 22.7976 9.17652 22.7976 12.5122C22.7976 15.8478 22.7829 16.2385 22.7243 17.5571Z" fill="#C9D6DF"/>
<path id="Vector_2" d="M12.5464 6.08032C9.00092 6.08032 6.12427 8.95678 6.12427 12.5025C6.12427 16.0482 9.00092 18.9246 12.5464 18.9246C16.0921 18.9246 18.9686 16.0482 18.9686 12.5025C18.9686 8.95678 16.0921 6.08032 12.5464 6.08032ZM12.5464 16.6684C10.2463 16.6684 8.38053 14.8028 8.38053 12.5025C8.38053 10.2021 10.2463 8.33658 12.5464 8.33658C14.8468 8.33658 16.7123 10.2021 16.7123 12.5025C16.7123 14.8028 14.8468 16.6684 12.5464 16.6684Z" fill="#C9D6DF"/>
<path id="Vector_3" d="M20.722 5.82643C20.722 6.65438 20.0507 7.32571 19.2225 7.32571C18.3946 7.32571 17.7233 6.65438 17.7233 5.82643C17.7233 4.99829 18.3946 4.32715 19.2225 4.32715C20.0507 4.32715 20.722 4.99829 20.722 5.82643Z" fill="#C9D6DF"/>
</g>
</g>
<defs>
<clipPath id="clip0_15_71">
<rect width="25" height="25" fill="white"/>
</clipPath>
</defs>
</svg>
