<svg width="32" height="32" viewBox="0 0 32 32" fill="none" xmlns="http://www.w3.org/2000/svg">
<g id="youtube 1">
<g id="Group">
<path id="Vector" d="M30.5537 8.17346C30.208 6.88824 29.1947 5.87512 27.9097 5.52905C25.5621 4.88672 16.1715 4.88672 16.1715 4.88672C16.1715 4.88672 6.78131 4.88672 4.43372 5.5047C3.1734 5.8504 2.13538 6.88843 1.78967 8.17346C1.17188 10.5209 1.17188 15.3891 1.17188 15.3891C1.17188 15.3891 1.17188 20.2819 1.78967 22.6047C2.13574 23.8898 3.14868 24.9029 4.4339 25.249C6.80603 25.8915 16.1719 25.8915 16.1719 25.8915C16.1719 25.8915 25.5621 25.8915 27.9097 25.2735C29.1949 24.9276 30.208 23.9145 30.5541 22.6295C31.1717 20.2819 31.1717 15.4138 31.1717 15.4138C31.1717 15.4138 31.1964 10.5209 30.5537 8.17346ZM13.1818 19.8865V10.8917L20.9905 15.3891L13.1818 19.8865Z" fill="#C9D6DF"/>
</g>
</g>
</svg>
